<svg viewBox="0 0 668 327" xmlns:xlink="http://www.w3.org/1999/xlink" height="327" width="668" xmlns="http://www.w3.org/2000/svg">
    <defs/>
    <g transform="translate(-171.00,-112.00)">
        <g id="shape1" transform="translate(615.00,280.00)">
            <path d="M.0,52.0C.0,23.3,47.7,.0,106.5,.0C165.3,.0,213.0,23.3,213.0,52.0C213.0,80.7,165.3,104.0,106.5,104.0C47.7,104.0,.0,80.7,.0,52.0z" stroke="#323232" fill="#8acf57" fill-rule="nonzero"/>
            <text xml:space="preserve" style="fill:#191919;font-family:Microsoft YaHei;font-size:10.00pt">
                <tspan y="47.5" x="89.0">gvmd</tspan>
                <tspan y="67.5" x="43.0" style="font-style:italic">(management server)</tspan>
            </text>
        </g>
        <g id="shape2" transform="translate(395.00,301.00)">
            <path d="M.0,31.0C.0,13.9,29.8,.0,66.5,.0C103.2,.0,133.0,13.9,133.0,31.0C133.0,48.1,103.2,62.0,66.5,62.0C29.8,62.0,.0,48.1,.0,31.0z" stroke="#323232" fill="#ffe8cd" fill-rule="nonzero"/>
            <text xml:space="preserve" style="fill:#191919;font-family:Microsoft YaHei;font-size:10.00pt">
                <tspan y="26.5" x="23.0">ospd-openvas</tspan>
                <tspan y="46.5" x="28.5" style="font-style:italic">(ospd server)</tspan>
            </text>
        </g>
        <g id="shape3" transform="translate(172.00,268.00)">
            <path d="M.0,64.0C.0,28.7,28.7,.0,64.0,.0C99.3,.0,128.0,28.7,128.0,64.0C128.0,99.3,99.3,128.0,64.0,128.0C28.7,128.0,.0,99.3,.0,64.0z" stroke="#323232" fill="#83ebdc" fill-rule="nonzero"/>
            <text xml:space="preserve" style="fill:#191919;font-family:Microsoft YaHei;font-size:10.00pt">
                <tspan y="59.5" x="11.5">openvas-scanner</tspan>
                <tspan y="79.5" x="33.5" style="font-style:italic">(scan tool)</tspan>
            </text>
        </g>
        <g id="shape4" transform="translate(610.00,113.00)">
            <path d="M.0,30.0C.0,13.4,20.1,.0,45.0,.0C69.9,.0,90.0,13.4,90.0,30.0C90.0,46.6,69.9,60.0,45.0,60.0C20.1,60.0,.0,46.6,.0,30.0z" stroke="#323232" fill="#f0ea2c" fill-rule="nonzero"/>
            <text xml:space="preserve" style="fill:#191919;font-family:Microsoft YaHei;font-size:10.00pt">
                <tspan y="25.5" x="34.5">gsa</tspan>
                <tspan y="45.5" x="9.0" style="font-style:italic">(web server)</tspan>
            </text>
        </g>
        <g id="shape5" transform="translate(437.00,113.00)">
            <path d="M.0,30.0C.0,13.4,22.4,.0,50.0,.0C77.6,.0,100.0,13.4,100.0,30.0C100.0,46.6,77.6,60.0,50.0,60.0C22.4,60.0,.0,46.6,.0,30.0z" stroke="#323232" fill="#cbcbcb" fill-rule="nonzero"/>
            <text xml:space="preserve" style="fill:#191919;font-family:Microsoft YaHei;font-size:10.00pt">
                <tspan y="35.5" x="30.5">webUI</tspan>
            </text>
        </g>
        <g id="shape6" transform="translate(615.00,332.00)">
            <path d="M.0,.0L-81.0,.0" stroke="#191919" fill="none"/>
            <path stroke-linecap="round" d="M-81.0,3.0L-87.0,.0L-81.0,-3.0L-81.0,3.0" stroke="#191919" stroke-width="1" fill="#191919"/>
        </g>
        <g id="shape7" transform="translate(395.00,332.00)">
            <path d="M.0,.0L-89.0,.0" stroke="#191919" fill="none"/>
            <path stroke-linecap="round" d="M-89.0,3.0L-95.0,.0L-89.0,-3.0L-89.0,3.0" stroke="#191919" stroke-width="1" fill="#191919"/>
            <text xml:space="preserve" style="fill:#191919;font-family:Microsoft YaHei;font-size:8.00pt"/>
        </g>
        <g id="shape8" transform="translate(738.00,114.00)">
            <path d="M.0,30.0C.0,13.4,22.4,.0,50.0,.0C77.6,.0,100.0,13.4,100.0,30.0C100.0,46.6,77.6,60.0,50.0,60.0C22.4,60.0,.0,46.6,.0,30.0z" stroke="#323232" fill="#d2e18f" fill-rule="nonzero"/>
            <text xml:space="preserve" style="fill:#191919;font-family:Microsoft YaHei UI;font-size:10.00pt">
                <tspan y="25.5" x="11.5">python-gvm</tspan>
                <tspan y="45.5" x="36.0" style="font-family:Microsoft YaHei;font-style:italic">(API)</tspan>
            </text>
        </g>
        <g id="shape9" transform="translate(197.00,408.00)">
            <path d="M624.0,30.0C630.6,30.0,636.0,24.6,636.0,18.0L636.0,12.0C636.0,5.4,630.6,.0,624.0,.0L12.0,.0C5.4,.0,.0,5.4,.0,12.0L.0,18.0C.0,24.6,5.4,30.0,12.0,30.0L624.0,30.0z" stroke="#323232" fill="#d7d7d7" fill-rule="nonzero"/>
            <text xml:space="preserve" style="fill:#191919;font-family:Microsoft YaHei;font-size:10.00pt">
                <tspan y="20.5" x="15.0">LIBS:                                               gvm-libs      openvas-smb                                                         </tspan>
            </text>
        </g>
        <g id="shape10" transform="translate(446.50,275.50)">
            <path d="M.0,19.5C.0,8.7,9.4,.0,21.0,.0C32.6,.0,42.0,8.7,42.0,19.5C42.0,30.3,32.6,39.0,21.0,39.0C9.4,39.0,.0,30.3,.0,19.5z" stroke="#323232" fill="#00aeee" fill-rule="nonzero"/>
            <text xml:space="preserve" style="fill:#191919;font-family:Microsoft YaHei;font-size:10.00pt">
                <tspan y="25.0" x="6.0">ospd</tspan>
            </text>
        </g>
        <g id="shape11" transform="translate(287.00,292.00)">
            <text xml:space="preserve" style="fill:#191919;font-family:Microsoft YaHei UI;font-size:10.00pt">
                <tspan y="36.0" x="38.0">contorl</tspan>
                <tspan y="55.0" x="18.5" style="fill:#f55151;font-family:Microsoft YaHei">OSP</tspan>
                <tspan x="45.5" style="font-family:Microsoft YaHei"> protocol</tspan>
            </text>
        </g>
        <g id="shape12" transform="translate(514.00,292.00)">
            <text xml:space="preserve" style="fill:#191919;font-family:Microsoft YaHei UI;font-size:10.00pt">
                <tspan y="36.0" x="38.0">contorl</tspan>
                <tspan y="55.0" x="16.5" style="fill:#f55151;font-family:Microsoft YaHei">GMP</tspan>
                <tspan x="47.5" style="font-family:Microsoft YaHei"> protocol</tspan>
            </text>
        </g>
        <g id="shape13" transform="translate(788.00,174.00)">
            <path d="M.0,.0L.0,111.0" stroke="#191919" fill="none"/>
            <path stroke-linecap="round" d="M3.0,111.0L.0,117.0L-3.0,111.0L3.0,111.0" stroke="#191919" stroke-width="1" fill="#191919"/>
            <rect y="38.6" fill="#ffffff" x="-14.5" height="19.0" width="31.0"/>
            <text xml:space="preserve" style="fill:#191919;font-family:Microsoft YaHei;font-size:10.00pt">
                <tspan y="53.6" x="-14.5">GMP</tspan>
            </text>
        </g>
        <g id="shape14" transform="translate(655.00,173.00)">
            <path d="M.0,.0L.0,111.0" stroke="#191919" fill="none"/>
            <path stroke-linecap="round" d="M3.0,111.0L.0,117.0L-3.0,111.0L3.0,111.0" stroke="#191919" stroke-width="1" fill="#191919"/>
            <rect y="37.8" fill="#ffffff" x="-14.5" height="19.0" width="31.0"/>
            <text xml:space="preserve" style="fill:#191919;font-family:Microsoft YaHei;font-size:10.00pt">
                <tspan y="52.8" x="-14.5">GMP</tspan>
            </text>
        </g>
        <g id="shape15" transform="translate(537.00,143.00)">
            <path d="M.0,.0L67.0,.0" stroke="#191919" fill="none"/>
            <path stroke-linecap="round" d="M67.0,-3.0L73.0,.0L67.0,3.0L67.0,-3.0" stroke="#191919" stroke-width="1" fill="#191919"/>
            <rect y="-9.5" fill="#ffffff" x="19.7" height="19.0" width="32.0"/>
            <text xml:space="preserve" style="fill:#191919;font-family:Microsoft YaHei;font-size:10.00pt">
                <tspan y="5.5" x="19.7">https</tspan>
            </text>
        </g>
    </g>
</svg>
